HIERARCHY
ROOT Hips
{
	OFFSET 0.000000 103.266502 0.000000
	CHANNELS 6 Xposition Yposition Zposition Xrotation Yrotation Zrotation 
	JOINT Spine
	{
		OFFSET -0.002400 12.777504 0.315300
		CHANNELS 3 Xrotation Yrotation Zrotation
		JOINT Spine1
		{
			OFFSET -0.002067 5.816869 0.032633
			CHANNELS 3 Xrotation Yrotation Zrotation
			JOINT Spine1_split
			{
				OFFSET -0.002067 5.816869 0.032633
				CHANNELS 3 Xrotation Yrotation Zrotation
				JOINT Spine2
				{
					OFFSET -0.002067 5.816869 0.032633
					CHANNELS 3 Xrotation Yrotation Zrotation
					JOINT Neck
					{
						OFFSET -0.003700 21.199493 -0.826900
						CHANNELS 3 Xrotation Yrotation Zrotation
						JOINT Head
						{
							OFFSET 0.000000 20.442200 4.834800
							CHANNELS 3 Xrotation Yrotation Zrotation
							JOINT HeadTop_End
							{
								OFFSET 0.000000 34.668396 4.968400
								CHANNELS 3 Xrotation Yrotation Zrotation
								End Site
								{
									OFFSET 0.000000 0.000000 0.000000
								}
							}
						}
					}
					JOINT LeftShoulder
					{
						OFFSET 3.288150 8.794197 -1.372250
						CHANNELS 3 Xrotation Yrotation Zrotation
						JOINT LeftShoulder_split
						{
							OFFSET 3.288150 8.794197 -1.372250
							CHANNELS 3 Xrotation Yrotation Zrotation
							JOINT LeftArm
							{
								OFFSET 11.953299 -2.279007 -0.146200
								CHANNELS 3 Xrotation Yrotation Zrotation
								JOINT LeftForeArm
								{
									OFFSET 18.448900 0.000000 0.000000
									CHANNELS 3 Xrotation Yrotation Zrotation
									JOINT LeftHand
									{
										OFFSET 29.527798 0.000000 0.000000
										CHANNELS 3 Xrotation Yrotation Zrotation
										JOINT LeftHandThumb1
										{
											OFFSET 10.739754 -2.369614 9.225399
											CHANNELS 3 Xrotation Yrotation Zrotation
											JOINT LeftHandThumb2
											{
												OFFSET 4.926170 -2.844131 2.844125
												CHANNELS 3 Xrotation Yrotation Zrotation
												JOINT LeftHandThumb3
												{
													OFFSET 4.614891 -2.664413 2.664409
													CHANNELS 3 Xrotation Yrotation Zrotation
													JOINT LeftHandThumb4
													{
														OFFSET 4.432465 -2.559082 2.559083
														CHANNELS 3 Xrotation Yrotation Zrotation
														End Site
														{
															OFFSET 0.000000 0.000000 0.000000
														}
													}
												}
											}
										}
										JOINT LeftHandIndex1
										{
											OFFSET 26.467674 0.187653 6.405298
											CHANNELS 3 Xrotation Yrotation Zrotation
											JOINT LeftHandIndex2
											{
												OFFSET 8.792900 0.000000 0.000000
												CHANNELS 3 Xrotation Yrotation Zrotation
												JOINT LeftHandIndex3
												{
													OFFSET 10.075203 0.000000 0.000000
													CHANNELS 3 Xrotation Yrotation Zrotation
													End Site
													{
														OFFSET 0.000000 0.000000 0.000000
													}
												}
											}
										}
										JOINT LeftHandMiddle1
										{
											OFFSET 25.764404 0.000000 0.000000
											CHANNELS 3 Xrotation Yrotation Zrotation
											JOINT LeftHandMiddle2
											{
												OFFSET 9.393974 0.000000 0.000000
												CHANNELS 3 Xrotation Yrotation Zrotation
												JOINT LeftHandMiddle3
												{
													OFFSET 10.771950 0.000000 0.000000
													CHANNELS 3 Xrotation Yrotation Zrotation
													End Site
													{
														OFFSET 0.000000 0.000000 0.000000
													}
												}
											}
										}
										JOINT LeftHandRing1
										{
											OFFSET 24.660927 0.144547 -6.225808
											CHANNELS 3 Xrotation Yrotation Zrotation
											JOINT LeftHandRing2
											{
												OFFSET 9.393799 0.000000 0.000000
												CHANNELS 3 Xrotation Yrotation Zrotation
												JOINT LeftHandRing3
												{
													OFFSET 9.928497 0.000000 0.000000
													CHANNELS 3 Xrotation Yrotation Zrotation
													End Site
													{
														OFFSET 0.000000 0.000000 0.000000
													}
												}
											}
										}
										JOINT LeftHandPinky1
										{
											OFFSET 23.655350 0.125290 -12.815412
											CHANNELS 3 Xrotation Yrotation Zrotation
											JOINT LeftHandPinky2
											{
												OFFSET 8.425102 0.000000 0.000000
												CHANNELS 3 Xrotation Yrotation Zrotation
												JOINT LeftHandPinky3
												{
													OFFSET 8.147003 0.000000 0.000000
													CHANNELS 3 Xrotation Yrotation Zrotation
													End Site
													{
														OFFSET 0.000000 0.000000 0.000000
													}
												}
											}
										}
									}
								}
							}
						}
					}
					JOINT RightShoulder
					{
						OFFSET -3.249400 8.794197 -1.372250
						CHANNELS 3 Xrotation Yrotation Zrotation
						JOINT RightShoulder_split
						{
							OFFSET -3.249400 8.794197 -1.372250
							CHANNELS 3 Xrotation Yrotation Zrotation
							JOINT RightArm
							{
								OFFSET -11.953299 -2.279007 -0.146200
								CHANNELS 3 Xrotation Yrotation Zrotation
								JOINT RightForeArm
								{
									OFFSET -18.448900 0.000000 0.000000
									CHANNELS 3 Xrotation Yrotation Zrotation
									JOINT RightHand
									{
										OFFSET -29.527802 0.000000 0.000000
										CHANNELS 3 Xrotation Yrotation Zrotation
										JOINT RightHandThumb1
										{
											OFFSET -10.739754 -2.369614 9.225399
											CHANNELS 3 Xrotation Yrotation Zrotation
											JOINT RightHandThumb2
											{
												OFFSET -4.926170 -2.844131 2.844125
												CHANNELS 3 Xrotation Yrotation Zrotation
												JOINT RightHandThumb3
												{
													OFFSET -4.614891 -2.664413 2.664409
													CHANNELS 3 Xrotation Yrotation Zrotation
													JOINT RightHandThumb4
													{
														OFFSET -4.432465 -2.559082 2.559083
														CHANNELS 3 Xrotation Yrotation Zrotation
														End Site
														{
															OFFSET 0.000000 0.000000 0.000000
														}
													}
												}
											}
										}
										JOINT RightHandIndex1
										{
											OFFSET -26.467674 0.187653 6.405298
											CHANNELS 3 Xrotation Yrotation Zrotation
											JOINT RightHandIndex2
											{
												OFFSET -8.792900 0.000000 0.000000
												CHANNELS 3 Xrotation Yrotation Zrotation
												JOINT RightHandIndex3
												{
													OFFSET -10.075203 0.000000 0.000000
													CHANNELS 3 Xrotation Yrotation Zrotation
													End Site
													{
														OFFSET 0.000000 0.000000 0.000000
													}
												}
											}
										}
										JOINT RightHandMiddle1
										{
											OFFSET -25.764404 0.000000 0.000000
											CHANNELS 3 Xrotation Yrotation Zrotation
											JOINT RightHandMiddle2
											{
												OFFSET -9.393974 0.000000 0.000000
												CHANNELS 3 Xrotation Yrotation Zrotation
												JOINT RightHandMiddle3
												{
													OFFSET -10.771950 0.000000 0.000000
													CHANNELS 3 Xrotation Yrotation Zrotation
													End Site
													{
														OFFSET 0.000000 0.000000 0.000000
													}
												}
											}
										}
										JOINT RightHandRing1
										{
											OFFSET -24.660927 0.144547 -6.225808
											CHANNELS 3 Xrotation Yrotation Zrotation
											JOINT RightHandRing2
											{
												OFFSET -9.393799 0.000000 0.000000
												CHANNELS 3 Xrotation Yrotation Zrotation
												JOINT RightHandRing3
												{
													OFFSET -9.928497 0.000000 0.000000
													CHANNELS 3 Xrotation Yrotation Zrotation
													End Site
													{
														OFFSET 0.000000 0.000000 0.000000
													}
												}
											}
										}
										JOINT RightHandPinky1
										{
											OFFSET -23.655350 0.125290 -12.815412
											CHANNELS 3 Xrotation Yrotation Zrotation
											JOINT RightHandPinky2
											{
												OFFSET -8.425102 0.000000 0.000000
												CHANNELS 3 Xrotation Yrotation Zrotation
												JOINT RightHandPinky3
												{
													OFFSET -8.147003 0.000000 0.000000
													CHANNELS 3 Xrotation Yrotation Zrotation
													End Site
													{
														OFFSET 0.000000 0.000000 0.000000
													}
												}
											}
										}
									}
								}
							}
						}
					}
				}
			}
		}
	}
	JOINT LeftUpLeg
	{
		OFFSET 11.394100 -6.187798 -0.413800
		CHANNELS 3 Xrotation Yrotation Zrotation
		JOINT LeftLeg
		{
			OFFSET 0.430247 -32.302673 3.732800
			CHANNELS 3 Xrotation Yrotation Zrotation
			JOINT LeftFoot
			{
				OFFSET -0.430247 -48.264931 -6.423300
				CHANNELS 3 Xrotation Yrotation Zrotation
				JOINT LeftToeBase
				{
					OFFSET 4.230900 -16.068199 23.438400
					CHANNELS 3 Xrotation Yrotation Zrotation
					JOINT LeftToe_End
					{
						OFFSET 4.510700 0.695400 19.974600
						CHANNELS 3 Xrotation Yrotation Zrotation
						End Site
						{
							OFFSET 0.000000 0.000000 0.000000
						}
					}
				}
			}
		}
	}
	JOINT RightUpLeg
	{
		OFFSET -11.333700 -6.187798 -0.413800
		CHANNELS 3 Xrotation Yrotation Zrotation
		JOINT RightLeg
		{
			OFFSET -0.430392 -32.302628 3.733000
			CHANNELS 3 Xrotation Yrotation Zrotation
			JOINT RightFoot
			{
				OFFSET 0.430392 -48.264973 -6.423500
				CHANNELS 3 Xrotation Yrotation Zrotation
				JOINT RightToeBase
				{
					OFFSET -4.230900 -16.068199 23.438400
					CHANNELS 3 Xrotation Yrotation Zrotation
					JOINT RightToe_End
					{
						OFFSET -4.510700 0.695400 19.974600
						CHANNELS 3 Xrotation Yrotation Zrotation
						End Site
						{
							OFFSET 0.000000 0.000000 0.000000
						}
					}
				}
			}
		}
	}
}
MOTION
Frames: 4
Frame Time: 0.016667
-0.077371 99.491348 -0.035461 -9.653492 5.265051 3.688694 15.860555 -5.077537 -1.483672 2.828927 -1.297233 -0.520220 0.000000 0.000000 0.000000 2.839534 -1.291909 -0.480964 -10.214221 -0.289804 1.928838 0.642531 3.946485 -0.951178 -0.000000 0.000000 -0.000000 1.783137 -2.817867 -5.367188 0.000000 0.000000 0.000000 8.347190 -11.449694 -68.845964 0.000003 -33.539022 0.000019 -23.608525 5.693674 2.838373 -3.469768 3.607317 7.883192 9.703626 22.223515 2.891167 -5.879064 9.699139 15.674883 -0.000001 -0.000001 0.000003 0.162357 3.429611 -10.498171 0.209649 1.554736 -15.358579 0.000000 -0.000001 -0.000002 0.362543 4.206371 -18.344223 0.474608 2.311790 -23.200226 -0.000000 -0.000000 -0.000001 0.689027 4.991709 -26.673256 0.865735 3.066787 -31.521449 -0.000000 -0.000000 -0.000003 0.902507 5.377889 -30.995357 1.110591 3.433628 -35.838166 0.000000 0.000000 -0.000002 0.815661 9.465461 15.261691 0.000000 0.000000 0.000000 -2.962833 1.768750 67.176686 0.000003 20.011855 -0.000010 1.317999 -7.062433 -8.055851 -1.986175 -5.435661 -3.761596 8.766472 -20.697679 -3.062055 -5.504773 -5.510976 -14.718532 0.000000 -0.000000 -0.000000 2.057127 -6.108263 55.293571 5.419356 -4.594513 99.429393 -0.000000 0.000001 -0.000003 2.592851 -6.426546 62.973436 4.946630 -4.648189 93.567308 -0.000001 -0.000001 0.000002 2.854991 -6.549356 66.538590 4.919143 -4.649814 93.228203 -0.000000 -0.000001 0.000002 1.542112 -5.696830 47.168211 2.898963 -4.313210 67.797346 -0.000001 0.000001 -0.000001 -22.444085 6.227097 -0.247958 50.416638 -4.882755 -0.734613 5.534667 -0.349998 2.261514 -23.320574 -0.422899 1.059792 0.000000 -0.000000 -0.000000 -6.280954 -6.429356 -3.475653 25.590444 6.271602 3.680831 -9.908119 0.763442 -5.867600 -1.006361 0.000000 -0.000000 -0.000000 0.000000 0.000000 
0.016153 99.641495 1.505417 -9.494503 4.567422 3.820147 15.756738 -4.887970 -1.816116 2.864631 -1.219264 -0.580729 0.000000 0.000000 0.000000 2.874599 -1.216439 -0.545703 -10.293795 -0.276140 1.920122 0.424422 4.055671 -0.967051 0.000000 0.000000 0.000000 1.743982 -3.170769 -5.307286 0.000000 0.000000 0.000000 8.560796 -9.744666 -69.768648 -0.000009 -31.640742 0.000012 -20.354017 6.201445 1.849363 -3.469768 3.607318 7.883193 9.703627 22.223511 2.891167 -5.879066 9.699138 15.674885 0.000000 -0.000001 0.000001 0.162357 3.429610 -10.498170 0.209649 1.554736 -15.358579 -0.000000 -0.000000 -0.000002 0.362543 4.206371 -18.344222 0.474608 2.311791 -23.200230 -0.000000 0.000000 -0.000001 0.689027 4.991708 -26.673253 0.865735 3.066785 -31.521453 0.000000 -0.000000 0.000003 0.902507 5.377887 -30.995361 1.110591 3.433628 -35.838170 0.000000 -0.000000 -0.000000 0.830234 9.367767 15.335603 0.000000 0.000000 0.000000 -2.994204 1.838903 66.790460 0.000005 20.328284 0.000004 1.692689 -7.849703 -8.272418 -1.986175 -5.435661 -3.761596 8.766473 -20.697678 -3.062051 -5.504773 -5.510973 -14.718533 -0.000002 0.000000 0.000000 2.057126 -6.108263 55.293571 5.419353 -4.594514 99.429386 0.000001 -0.000001 0.000002 2.592851 -6.426545 62.973443 4.946628 -4.648188 93.567301 0.000000 0.000001 -0.000001 2.854992 -6.549357 66.538590 4.919141 -4.649816 93.228209 0.000003 -0.000000 0.000000 1.542112 -5.696829 47.168211 2.898963 -4.313210 67.797346 -0.000000 0.000000 -0.000001 -22.561508 6.765687 -1.919858 46.129400 -5.384645 -0.745214 5.627802 -0.459882 3.568009 -18.925565 -0.310499 1.003190 0.000000 0.000000 -0.000000 -4.969076 -6.560477 -3.751481 24.908511 6.277851 3.694700 -10.642833 1.643550 -5.804490 -1.006364 -0.000006 0.000001 -0.000000 0.000000 0.000000 
0.144591 99.751961 3.162754 -9.311840 3.941941 3.870066 15.582518 -4.698747 -2.036681 2.925966 -1.153219 -0.636157 0.000000 0.000000 0.000000 2.934974 -1.152664 -0.605375 -10.373084 -0.263189 1.911384 0.194516 4.155700 -0.959679 -0.000000 0.000000 0.000000 1.706081 -3.362186 -5.359654 0.000000 0.000000 0.000000 8.566215 -8.219112 -70.564809 -0.000002 -29.568920 -0.000010 -16.683219 6.782384 0.412757 -3.469768 3.607317 7.883191 9.703626 22.223513 2.891167 -5.879065 9.699137 15.674881 0.000002 -0.000002 0.000001 0.162357 3.429611 -10.498170 0.209649 1.554736 -15.358579 -0.000000 0.000000 0.000001 0.362543 4.206372 -18.344225 0.474609 2.311791 -23.200223 0.000000 -0.000000 0.000000 0.689027 4.991709 -26.673251 0.865735 3.066786 -31.521449 0.000000 0.000000 -0.000000 0.902507 5.377888 -30.995354 1.110591 3.433630 -35.838170 -0.000000 -0.000000 -0.000003 0.840506 9.299989 15.386815 0.000000 0.000000 0.000000 -3.179691 1.962939 66.379248 0.000001 20.310423 -0.000003 1.979820 -8.025344 -8.406105 -1.986176 -5.435662 -3.761594 8.766475 -20.697679 -3.062050 -5.504774 -5.510976 -14.718532 -0.000001 0.000002 0.000001 2.057125 -6.108263 55.293571 5.419355 -4.594512 99.429393 0.000001 -0.000000 -0.000001 2.592851 -6.426546 62.973443 4.946628 -4.648187 93.567308 0.000001 -0.000000 -0.000001 2.854992 -6.549357 66.538583 4.919141 -4.649816 93.228209 0.000001 -0.000000 0.000003 1.542110 -5.696830 47.168211 2.898964 -4.313212 67.797346 0.000000 -0.000001 0.000000 -23.366332 6.704716 -2.856767 42.313633 -5.361129 -0.725248 6.230930 0.150871 1.747165 -14.384395 -0.607567 2.717822 0.000000 -0.000000 0.000000 -3.560667 -6.612120 -3.936859 24.170243 6.267181 3.710414 -11.448396 2.370533 -5.697823 -1.006363 0.000001 0.000001 0.000000 0.000000 0.000000 
0.287961 99.970413 4.988597 -9.114663 3.247682 3.965220 15.396216 -4.501693 -2.322822 2.992097 -1.077589 -0.696962 0.000000 0.000000 0.000000 3.000079 -1.079578 -0.670915 -10.460872 -0.248840 1.903442 -0.064419 4.273281 -0.953785 0.000000 0.000000 0.000000 1.662390 -3.586409 -5.415228 0.000000 0.000000 0.000000 8.625614 -6.507514 -71.432359 -0.000009 -27.273623 -0.000007 -12.557442 7.323394 -1.225750 -3.469769 3.607318 7.883191 9.703626 22.223509 2.891168 -5.879064 9.699136 15.674883 -0.000001 0.000002 -0.000000 0.162356 3.429611 -10.498170 0.209649 1.554735 -15.358577 -0.000000 0.000000 -0.000000 0.362543 4.206372 -18.344222 0.474609 2.311791 -23.200230 0.000001 0.000001 -0.000000 0.689028 4.991709 -26.673256 0.865735 3.066786 -31.521449 0.000000 -0.000000 0.000002 0.902507 5.377888 -30.995357 1.110590 3.433630 -35.838170 0.000000 0.000000 0.000002 0.852756 9.220246 15.447169 0.000000 0.000000 0.000000 -3.645494 2.192718 65.984245 0.000010 19.518041 -0.000032 2.258819 -7.623020 -8.499301 -1.986176 -5.435660 -3.761593 8.766474 -20.697678 -3.062052 -5.504776 -5.510971 -14.718532 -0.000000 0.000001 0.000002 2.057126 -6.108263 55.293564 5.419355 -4.594514 99.429386 -0.000001 0.000001 -0.000001 2.592851 -6.426546 62.973443 4.946630 -4.648187 93.567308 -0.000002 -0.000000 0.000002 2.854992 -6.549355 66.538583 4.919143 -4.649813 93.228209 -0.000001 0.000001 0.000004 1.542111 -5.696829 47.168214 2.898962 -4.313211 67.797346 0.000000 -0.000001 -0.000000 -23.418280 6.508930 -3.764549 36.711232 -5.422436 -0.745974 7.741908 0.912060 -0.717768 -9.587852 -0.674535 4.916722 0.000000 -0.000000 0.000000 -1.682770 -6.629345 -4.154739 22.786930 6.223518 3.721071 -12.101908 3.119196 -5.513057 -1.002989 0.000000 -0.000000 -0.000000 0.000000 0.000000 
